<svg width="45" xmlns="http://www.w3.org/2000/svg" height="45" id="screenshot-f9a506ad-19c6-8089-8006-77540e02696f" viewBox="0 0 45 45" xmlns:xlink="http://www.w3.org/1999/xlink" fill="none" version="1.1"><g id="shape-f9a506ad-19c6-8089-8006-77540e02696f" width="24" height="24" rx="0" ry="0" style="fill: rgb(0, 0, 0);"><g id="shape-f9a506ad-19c6-8089-8006-77540e09d8ed" style="display: none;"><g class="fills" id="fills-f9a506ad-19c6-8089-8006-77540e09d8ed"><rect width="45" height="45" x="0" transform="matrix(1.000000, 0.000000, 0.000000, 1.000000, 0.000000, 0.000000)" style="fill: none;" ry="0" fill="none" rx="0" y="0"/></g><g fill="none" id="strokes-56c72f95-e51e-80a8-8006-7c863c773af4-f9a506ad-19c6-8089-8006-77540e09d8ed" class="strokes"><g class="stroke-shape"><rect rx="0" ry="0" x="0" y="0" transform="matrix(1.000000, 0.000000, 0.000000, 1.000000, 0.000000, 0.000000)" width="45" height="45" style="fill: none; stroke-width: 0; stroke: rgb(0, 0, 0); stroke-opacity: 1;"/></g></g></g><g id="shape-f9a506ad-19c6-8089-8006-77540e0d579b"><g class="fills" id="fills-f9a506ad-19c6-8089-8006-77540e0d579b"><path d="M22.50189208984375,16.875C19.394287109375,16.875,16.87689208984375,19.3935546875,16.87689208984375,22.5C16.87689208984375,25.607666015625,19.39520263671875,28.125,22.50189208984375,28.125C25.60931396484375,28.125,28.12689208984375,25.606689453125,28.12689208984375,22.5C28.12689208984375,19.392578125,25.608642578125,16.875,22.50189208984375,16.875ZM22.50189208984375,13.125C27.6776123046875,13.125,31.87689208984375,17.31982421875,31.87689208984375,22.5C31.87689208984375,27.67578125,27.68231201171875,31.875,22.50189208984375,31.875C17.32598876953125,31.875,13.12689208984375,27.680419921875,13.12689208984375,22.5C13.12689208984375,17.324462890625,17.3214111328125,13.125,22.50189208984375,13.125ZM34.68939208984375,12.65478515625C34.68939208984375,13.948974609375,33.637939453125,14.99853515625,32.34564208984375,14.99853515625C31.05169677734375,14.99853515625,30.00189208984375,13.947021484375,30.00189208984375,12.65478515625C30.00189208984375,11.362548828125,31.05328369140625,10.3125,32.34564208984375,10.3125C33.63623046875,10.31103515625,34.68939208984375,11.362548828125,34.68939208984375,12.65478515625ZM22.50189208984375,7.5C17.86224365234375,7.5,17.10601806640625,7.51220703125,14.947998046875,7.6083984375C13.477783203125,7.677490234375,12.4923095703125,7.875244140625,11.57659912109375,8.23095703125C10.7628173828125,8.54638671875,10.17584228515625,8.923095703125,9.5504150390625,9.548828125C8.922607421875,10.176513671875,8.54638671875,10.761962890625,8.2320556640625,11.575927734375C7.87567138671875,12.49365234375,7.67803955078125,13.477783203125,7.61029052734375,14.94580078125C7.51324462890625,17.015869140625,7.50189208984375,17.739501953125,7.50189208984375,22.5C7.50189208984375,27.139892578125,7.51416015625,27.89599609375,7.61029052734375,30.053955078125C7.6793212890625,31.5234375,7.87725830078125,32.51025390625,8.23193359375,33.424072265625C8.54833984375,34.23876953125,8.926025390625,34.826904296875,9.5484619140625,35.449462890625C10.1787109375,36.0791015625,10.765869140625,36.45654296875,11.57232666015625,36.767822265625C12.49908447265625,37.1259765625,13.48406982421875,37.32421875,14.94775390625,37.391845703125C17.01788330078125,37.488525390625,17.74139404296875,37.5,22.50189208984375,37.5C27.1416015625,37.5,27.8978271484375,37.487548828125,30.05560302734375,37.391845703125C31.52203369140625,37.32275390625,32.509765625,37.12451171875,33.4256591796875,36.769775390625C34.23828125,36.454345703125,34.82855224609375,36.075439453125,35.45135498046875,35.45361328125C36.081787109375,34.822509765625,36.45843505859375,34.236572265625,36.77008056640625,33.427978515625C37.12744140625,32.5048828125,37.325927734375,31.518310546875,37.3935546875,30.054443359375C37.490478515625,27.98388671875,37.50189208984375,27.2607421875,37.50189208984375,22.5C37.50189208984375,17.8603515625,37.48956298828125,17.104248046875,37.3935546875,14.9462890625C37.32452392578125,13.479736328125,37.1259765625,12.490478515625,36.77117919921875,11.574951171875C36.45635986328125,10.76318359375,36.0782470703125,10.174560546875,35.45330810546875,9.548828125C34.824462890625,8.919921875,34.2406005859375,8.54443359375,33.42584228515625,8.22998046875C32.50872802734375,7.874267578125,31.5233154296875,7.676025390625,30.055908203125,7.6083984375C27.98590087890625,7.51123046875,27.2623291015625,7.5,22.50189208984375,7.5ZM22.50189208984375,3.75C27.5955810546875,3.75,28.23150634765625,3.7685546875,30.2315673828125,3.862548828125C32.22674560546875,3.955078125,33.58782958984375,4.270263671875,34.78314208984375,4.734619140625C36.01898193359375,5.211181640625,37.06280517578125,5.854736328125,38.10491943359375,6.89697265625C39.1455078125,7.939453125,39.78948974609375,8.986328125,40.26751708984375,10.218994140625C40.72991943359375,11.412353515625,41.04571533203125,12.775146484375,41.139404296875,14.7705078125C41.22845458984375,16.7705078125,41.25189208984375,17.40625,41.25189208984375,22.5C41.25189208984375,27.593994140625,41.233154296875,28.229736328125,41.139404296875,30.229736328125C41.04718017578125,32.22509765625,40.72991943359375,33.5859375,40.26751708984375,34.78125C39.79095458984375,36.01708984375,39.1455078125,37.060791015625,38.10491943359375,38.103271484375C37.06280517578125,39.143798828125,36.0142822265625,39.787841796875,34.78314208984375,40.265625C33.58782958984375,40.728515625,32.22674560546875,41.0439453125,30.2315673828125,41.1376953125C28.23150634765625,41.2265625,27.5955810546875,41.25,22.50189208984375,41.25C17.40814208984375,41.25,16.772216796875,41.231201171875,14.772216796875,41.1376953125C12.77685546875,41.045166015625,11.41748046875,40.728515625,10.2205810546875,40.265625C8.9862060546875,39.7890625,7.94091796875,39.143798828125,6.898681640625,38.103271484375C5.8565673828125,37.060791015625,5.21435546875,36.0126953125,4.7362060546875,34.78125C4.27215576171875,33.5859375,3.9581298828125,32.22509765625,3.8643798828125,30.229736328125C3.7752685546875,28.229736328125,3.75189208984375,27.593994140625,3.75189208984375,22.5C3.75189208984375,17.40625,3.77069091796875,16.7705078125,3.8643798828125,14.7705078125C3.95654296875,12.7734375,4.27215576171875,11.414306640625,4.7362060546875,10.218994140625C5.2127685546875,8.984375,5.8565673828125,7.939453125,6.898681640625,6.89697265625C7.94091796875,5.854736328125,8.98779296875,5.21240234375,10.2205810546875,4.734619140625C11.4158935546875,4.270263671875,12.77532958984375,3.956298828125,14.772216796875,3.862548828125C16.772216796875,3.773681640625,17.40814208984375,3.75,22.50189208984375,3.75Z" stroke="none" stroke-width="0" style="fill: rgb(255, 255, 255); fill-opacity: 1;"/></g></g></g></svg>