<svg width="45" xmlns="http://www.w3.org/2000/svg" height="45" id="screenshot-f9a506ad-19c6-8089-8006-77543fff3731" viewBox="0 0 45 45" xmlns:xlink="http://www.w3.org/1999/xlink" fill="none" version="1.1"><g id="shape-f9a506ad-19c6-8089-8006-77543fff3731" width="24" height="24" rx="0" ry="0" style="fill: rgb(0, 0, 0);"><g id="shape-f9a506ad-19c6-8089-8006-775440007cb0" style="display: none;"><g class="fills" id="fills-f9a506ad-19c6-8089-8006-775440007cb0"><rect width="45" height="45" x="0" transform="matrix(1.000000, 0.000000, 0.000000, 1.000000, 0.000000, 0.000000)" style="fill: none;" ry="0" fill="none" rx="0" y="0"/></g><g fill="none" id="strokes-4d66621c-7f4a-8046-8006-7c864cdedb49-f9a506ad-19c6-8089-8006-775440007cb0" class="strokes"><g class="stroke-shape"><rect rx="0" ry="0" x="0" y="0" transform="matrix(1.000000, 0.000000, 0.000000, 1.000000, 0.000000, 0.000000)" width="45" height="45" style="fill: none; stroke-width: 0; stroke: rgb(0, 0, 0); stroke-opacity: 1;"/></g></g></g><g id="shape-f9a506ad-19c6-8089-8006-77544000f3ed"><g class="fills" id="fills-f9a506ad-19c6-8089-8006-77544000f3ed"><path d="M5.62493896484375,5.625L39.37493896484375,5.625C40.4105224609375,5.625,41.24993896484375,6.46435546875,41.24993896484375,7.5L41.24993896484375,37.5C41.24993896484375,38.535888671875,40.4105224609375,39.375,39.37493896484375,39.375L5.62493896484375,39.375C4.58941650390625,39.375,3.74993896484375,38.535888671875,3.74993896484375,37.5L3.74993896484375,7.5C3.74993896484375,6.46435546875,4.58941650390625,5.625,5.62493896484375,5.625ZM37.49993896484375,13.5712890625L22.634521484375,26.8837890625L7.49993896484375,13.530029296875L7.49993896484375,35.625L37.49993896484375,35.625L37.49993896484375,13.5712890625ZM8.4588623046875,9.375L22.61602783203125,21.866455078125L36.56427001953125,9.375L8.4588623046875,9.375Z" stroke="none" stroke-width="0" style="fill: rgb(255, 255, 255);"/></g></g></g></svg>