<svg width="45" xmlns="http://www.w3.org/2000/svg" height="45" id="screenshot-f9a506ad-19c6-8089-8006-77543024101a" viewBox="0 0 45 45" xmlns:xlink="http://www.w3.org/1999/xlink" fill="none" version="1.1"><g id="shape-f9a506ad-19c6-8089-8006-77543024101a" width="24" height="24" rx="0" ry="0" style="fill: rgb(0, 0, 0);"><g id="shape-f9a506ad-19c6-8089-8006-775430264b11" style="display: none;"><g class="fills" id="fills-f9a506ad-19c6-8089-8006-775430264b11"><rect width="45" height="45" x="0" transform="matrix(1.000000, 0.000000, 0.000000, 1.000000, 0.000000, 0.000000)" style="fill: none;" ry="0" fill="none" rx="0" y="0"/></g><g fill="none" id="strokes-dcd10f0c-de1c-80b3-8006-7c86177ee1a2-f9a506ad-19c6-8089-8006-775430264b11" class="strokes"><g class="stroke-shape"><rect rx="0" ry="0" x="0" y="0" transform="matrix(1.000000, 0.000000, 0.000000, 1.000000, 0.000000, 0.000000)" width="45" height="45" style="fill: none; stroke-width: 0; stroke: rgb(0, 0, 0); stroke-opacity: 1;"/></g></g></g><g id="shape-f9a506ad-19c6-8089-8006-775430286a9b"><g class="fills" id="fills-f9a506ad-19c6-8089-8006-775430286a9b"><path d="M13.6004638671875,34.6767578125L14.9593505859375,35.46923828125C17.2294921875,36.793212890625,19.8094482421875,37.5,22.50177001953125,37.5C30.78607177734375,37.5,37.50177001953125,30.784423828125,37.50177001953125,22.5C37.50177001953125,14.2158203125,30.78607177734375,7.5,22.50177001953125,7.5C14.217529296875,7.5,7.50177001953125,14.2158203125,7.50177001953125,22.5C7.50177001953125,25.193359375,8.20904541015625,27.774169921875,9.53369140625,30.044677734375L10.32562255859375,31.402099609375L9.10028076171875,35.905029296875L13.6004638671875,34.6767578125ZM3.75958251953125,41.25L6.2945556640625,31.933837890625C4.677978515625,29.1630859375,3.75177001953125,25.93994140625,3.75177001953125,22.5C3.75177001953125,12.144775390625,12.1463623046875,3.75,22.50177001953125,3.75C32.85711669921875,3.75,41.25177001953125,12.144775390625,41.25177001953125,22.5C41.25177001953125,32.85546875,32.85711669921875,41.25,22.50177001953125,41.25C19.06317138671875,41.25,15.84088134765625,40.32470703125,13.07025146484375,38.708740234375L3.75958251953125,41.25ZM15.7354736328125,13.703125C15.986572265625,13.685546875,16.23846435546875,13.682861328125,16.48974609375,13.6953125C16.59136962890625,13.70166015625,16.69244384765625,13.713623046875,16.79345703125,13.72509765625C17.0921630859375,13.759765625,17.4205322265625,13.941650390625,17.53094482421875,14.19189453125C18.0902099609375,15.4599609375,18.63299560546875,16.73583984375,19.15911865234375,18.017822265625C19.275146484375,18.30126953125,19.2052001953125,18.66845703125,18.98431396484375,19.023193359375C18.8721923828125,19.205322265625,18.696044921875,19.460693359375,18.49212646484375,19.7216796875C18.28009033203125,19.9931640625,17.82366943359375,20.4921875,17.82366943359375,20.4921875C17.82366943359375,20.4921875,17.63873291015625,20.713623046875,17.70843505859375,20.98974609375C17.73553466796875,21.09375,17.82220458984375,21.24560546875,17.90069580078125,21.373291015625C17.9442138671875,21.4443359375,17.98455810546875,21.507568359375,18.01080322265625,21.551025390625C18.49066162109375,22.35205078125,19.1356201171875,23.16455078125,19.9234619140625,23.92822265625C20.14923095703125,24.14697265625,20.3682861328125,24.370361328125,20.60369873046875,24.57763671875C21.4818115234375,25.351806640625,22.47515869140625,25.984375,23.54803466796875,26.453125L23.5576171875,26.457275390625C23.71600341796875,26.525390625,23.79736328125,26.56298828125,24.02935791015625,26.661376953125C24.14630126953125,26.7109375,24.2659912109375,26.75341796875,24.3887939453125,26.785888671875C24.4332275390625,26.79736328125,24.478759765625,26.80419921875,24.5245361328125,26.807373046875C24.82769775390625,26.8251953125,25.00299072265625,26.631103515625,25.077880859375,26.54150390625C26.4344482421875,24.898193359375,26.5584716796875,24.791015625,26.56787109375,24.7919921875L26.56787109375,24.794677734375C26.74615478515625,24.60693359375,27.02655029296875,24.54150390625,27.2767333984375,24.55712890625C27.39080810546875,24.56396484375,27.50445556640625,24.5859375,27.6083984375,24.633056640625C28.60552978515625,25.088134765625,30.23583984375,25.797607421875,30.23583984375,25.797607421875L31.32611083984375,26.287841796875C31.50872802734375,26.375732421875,31.67535400390625,26.58349609375,31.68353271484375,26.784912109375C31.68829345703125,26.910400390625,31.70184326171875,27.11328125,31.65704345703125,27.483642578125C31.598388671875,27.96875,31.45086669921875,28.552978515625,31.30413818359375,28.858642578125C31.2010498046875,29.073486328125,31.06756591796875,29.263916015625,30.91229248046875,29.42529296875C30.70172119140625,29.643798828125,30.54541015625,29.776611328125,30.292236328125,29.965087890625C30.13812255859375,30.080078125,30.0582275390625,30.134033203125,30.0582275390625,30.134033203125C29.7977294921875,30.29833984375,29.65106201171875,30.38037109375,29.3406982421875,30.545654296875C28.85809326171875,30.802734375,28.32476806640625,30.9501953125,27.7786865234375,30.978515625C27.430419921875,30.996337890625,27.08319091796875,31.021728515625,26.73529052734375,31.0029296875C26.719970703125,31.001953125,25.66998291015625,30.84033203125,25.66998291015625,30.84033203125C23.00396728515625,30.13916015625,20.538330078125,28.82568359375,18.4693603515625,27.00390625C18.0462646484375,26.631591796875,17.65399169921875,26.228271484375,17.2535400390625,25.830078125C15.58660888671875,24.170166015625,14.32452392578125,22.380859375,13.55938720703125,20.68798828125C13.18194580078125,19.853515625,12.9429931640625,18.95947265625,12.939208984375,18.03955078125C12.932373046875,16.9013671875,13.30487060546875,15.793701171875,13.9981689453125,14.890869140625C14.134765625,14.71337890625,14.26446533203125,14.5283203125,14.4881591796875,14.3173828125C14.7252197265625,14.093505859375,14.87603759765625,13.9736328125,15.03851318359375,13.890380859375C15.25506591796875,13.779541015625,15.49285888671875,13.720458984375,15.7354736328125,13.703125Z" stroke="none" stroke-width="0" style="fill: rgb(255, 255, 255);"/></g></g></g></svg>